<svg width="19" height="24" viewBox="0 0 19 24" fill="none" xmlns="http://www.w3.org/2000/svg">
<g clipPath="url(#clip0_581_20896)">
<path d="M18.3953 0.000288764H16.4459C16.1581 0.000288764 15.9248 0.241994 15.9248 0.540124V2.31715C15.9248 2.61528 16.1581 2.85693 16.4459 2.85693H18.3953C18.6831 2.85693 18.9164 2.61528 18.9164 2.31715V0.540124C18.9164 0.241994 18.6831 0.000288764 18.3953 0.000288764Z" fill="#469DDC"/>
<path d="M12.773 10.5925H1.07004C0.479076 10.5925 0 11.0715 0 11.6625V23.262C0 23.6693 0.330183 23.9995 0.737492 23.9995H2.15051C2.55782 23.9995 2.888 23.6693 2.888 23.262V13.4492H12.773C13.1804 13.4492 13.5105 13.119 13.5105 12.7117V11.33C13.5105 10.9227 13.1804 10.5925 12.773 10.5925" fill="#469DDC"/>
<path d="M12.773 0.000288764H0.737137C0.330027 0.000288764 0 0.330332 0 0.73741V2.26042C0 2.58852 0.265976 2.85453 0.594089 2.85453H5.77467V2.85693H12.773C13.1804 2.85693 13.5105 2.52679 13.5105 2.11946V0.737759C13.5105 0.330481 13.1804 0.000288764 12.773 0.000288764" fill="#469DDC"/>
</g>
<defs>
<clipPath id="clip0_581_20896">
<rect width="18.9164" height="24" fill="white"/>
</clipPath>
</defs>
</svg>
